<?xml version="1.0" encoding="UTF-8"?>
<svg width="338px" height="400px" viewBox="0 0 338 400" version="1.1" xmlns="http://www.w3.org/2000/svg" xmlns:xlink="http://www.w3.org/1999/xlink">
    <title>Artboard Copy</title>
    <g id="Artboard-Copy" stroke="none" stroke-width="1" fill="none" fill-rule="evenodd">
        <path d="M10.9965693,9 C8.22073834,66.4131102 8.29271589,105.976348 11.3475427,127.674929 C20.8836625,195.410442 43.6887347,233.839769 57.3184321,256.82565 C58.1025346,258.148004 58.8572657,259.420859 59.5786543,260.646669 C78.564711,292.908488 115.067907,335.139991 168.917397,387.463451 C222.456894,335.141892 258.806095,292.90858 277.792205,260.646669 C278.513594,259.420859 279.268325,258.148004 280.052427,256.82565 C293.682125,233.839769 316.487197,195.410442 326.023317,127.674929 C329.078234,105.97571 329.151079,66.41349 326.374407,9 L10.9965693,9 Z" id="Combined-Shape" stroke="#2D2926" stroke-width="18"></path>
        <path d="M232.664604,65.1221445 C201.531487,45.4269973 179.267313,88.7863756 178.74505,90.1030428 C173.193315,100.929768 168.624104,117.507372 165.791002,129.870209 L125.13313,123.868878 L123.540106,134.807712 L163.566015,140.713632 C162.457099,146.433501 161.89191,150.111583 161.89191,150.111583 L159.919708,162.164335 L160.031792,162.181032 C159.991251,162.417174 159.95071,162.662856 159.910169,162.896612 L120.179971,157.036012 L118.687108,167.986771 L157.945122,173.780584 C147.626241,225.874809 139.992605,241.584176 132.30412,250.206915 C130.739714,252.053111 119.717326,259.430741 114.170361,246.233061 C110.295117,237.01162 102.942884,238.280581 102.942884,238.280581 C100.868138,238.082604 91.22176,244.315306 106.336406,253.87784 C137.467138,273.572988 159.733697,230.213609 160.25596,228.899327 C165.80531,218.072602 173.205239,188.81015 176.040725,176.449698 L216.851222,182.470111 L218.444246,171.533663 L178.263327,165.60389 C179.372243,159.886406 179.939817,156.208324 179.939817,156.208324 L181.909634,144.153186 L181.79755,144.13649 C181.840476,143.902733 181.878632,143.654666 181.921558,143.42091 L221.649371,149.283895 L223.142234,138.33075 L183.886605,132.539323 C194.205486,80.4427126 199.008405,77.4134239 206.694505,68.79307 C208.258911,66.9492588 219.283683,59.5692436 224.828264,72.7693096 C228.703508,81.9883654 236.058126,80.7194035 236.058126,80.7194035 C238.132872,80.9173807 247.776865,74.6822935 232.664604,65.1221445" id="F" fill="#2D2926"></path>
    </g>
</svg>